<svg height='100px' width='100px'  fill="#000000" xmlns="http://www.w3.org/2000/svg" xmlns:xlink="http://www.w3.org/1999/xlink" version="1.1" x="0px" y="0px" viewBox="0 0 850.4 850.4" enable-background="new 0 0 850.4 850.4" xml:space="preserve"><g><path d="M425.3,453.4c-50.2,0-91.1,40.9-91.1,91.1s40.9,91.1,91.1,91.1c50.2,0,91.1-40.9,91.1-91.1S475.6,453.4,425.3,453.4z    M425.3,618.2c-40.7,0-73.8-33.1-73.8-73.8c0-40.7,33.1-73.8,73.8-73.8c40.7,0,73.8,33.1,73.8,73.8   C499.1,585.1,466,618.2,425.3,618.2z"></path><path d="M425.3,515.9c-15.8,0-28.6,12.8-28.6,28.6c0,15.8,12.8,28.6,28.6,28.6c15.8,0,28.6-12.8,28.6-28.6   C454,528.7,441.1,515.9,425.3,515.9z M425.3,555.7c-6.2,0-11.3-5-11.3-11.3c0-6.2,5-11.3,11.3-11.3c6.2,0,11.3,5,11.3,11.3   C436.6,550.7,431.6,555.7,425.3,555.7z"></path><path d="M368.5,367.1c0-4.8-3.9-8.7-8.7-8.7c-4.8,0-8.7,3.9-8.7,8.7c0,20.6-16.8,37.4-37.4,37.4c-20.6,0-37.4-16.8-37.4-37.4   c0-4.8-3.9-8.7-8.7-8.7c-4.8,0-8.7,3.9-8.7,8.7c0,30.2,24.6,54.8,54.8,54.8C343.9,421.9,368.5,397.3,368.5,367.1z"></path><path d="M583.1,358.5c-4.8,0-8.7,3.9-8.7,8.7c0,20.6-16.8,37.4-37.4,37.4c-20.6,0-37.4-16.8-37.4-37.4c0-4.8-3.9-8.7-8.7-8.7   c-4.8,0-8.7,3.9-8.7,8.7c0,30.2,24.6,54.8,54.8,54.8c30.2,0,54.8-24.6,54.8-54.8C591.7,362.3,587.9,358.5,583.1,358.5z"></path><path d="M694.2,316.9c-1.8,0-3.5,0.1-5.3,0.2c-43.7-105.9-148.7-176.5-263.5-176.5c-114.9,0-219.9,70.6-263.5,176.5   c-1.8-0.2-3.5-0.2-5.3-0.2c-34.7,0-63,28.3-63,63c0,28.9,19.9,53.9,47.3,61c3.8,71.8,34.1,138.6,85.8,189   c53.5,52.1,124.1,80.8,198.7,80.8c74.7,0,145.3-28.7,198.7-80.8c51.7-50.4,82-117.2,85.8-189c27.4-7,47.3-32.1,47.3-61   C757.2,345.1,728.9,316.9,694.2,316.9z M700.3,425c-4.2,0.6-7.4,4.1-7.5,8.3c-4.2,145.7-121.7,259.9-267.5,259.9   c-145.8,0-263.3-114.1-267.5-259.9c-0.1-4.2-3.3-7.8-7.5-8.3c-22.5-3-39.5-22.4-39.5-45.2c0-25.2,20.5-45.6,45.6-45.6   c3.1,0,6.1,0.3,9.1,0.9c4.1,0.8,8.3-1.4,9.8-5.4C214.9,227,315.3,158,425.3,158c2.9,0,5.8,0.1,8.7,0.2c19.8,2.2,38,11,52,25.4   c16,16.4,24.6,38.1,24.3,61c-0.2,17.9-7.4,34.6-20.2,47.1c-12.8,12.5-29.7,19.2-47.6,19c-13.8-0.2-26.8-5.7-36.4-15.7   c-9.7-9.9-14.9-23-14.7-36.8c0.1-10.6,4.4-20.5,12-27.9c7.5-7.3,17.3-11.3,27.7-11.3c0.2,0,0.4,0,0.5,0   c16.6,0.2,29.9,13.9,29.6,30.4c-0.1,4.8,3.8,8.7,8.6,8.8c4.6,0.1,8.7-3.8,8.8-8.6c0.3-26.1-20.6-47.7-46.8-48   c-15.2,0-29.7,5.5-40.6,16.2c-10.9,10.6-17.1,24.9-17.2,40.1c-0.2,18.5,6.7,35.9,19.6,49.2c12.9,13.2,30.2,20.7,48.6,20.9   c0.4,0,0.8,0,1.1,0c22.1,0,42.9-8.5,58.8-23.9c16.1-15.7,25.2-36.8,25.5-59.3c0.4-27.6-10-53.6-29.3-73.4c-1.5-1.6-3.2-3-4.9-4.5   c81.6,21.8,150.5,81.8,181.6,162.8c1.5,4,5.7,6.2,9.8,5.4c3-0.6,6.1-0.9,9.1-0.9c25.2,0,45.6,20.5,45.6,45.6   C739.8,402.6,722.8,422,700.3,425z"></path></g></svg>