<svg height='100px' width='100px'  fill="#000000" xmlns="http://www.w3.org/2000/svg" xmlns:xlink="http://www.w3.org/1999/xlink" version="1.1" x="0px" y="0px" viewBox="0 0 850.4 850.4" enable-background="new 0 0 850.4 850.4" xml:space="preserve"><g><path d="M531.6,488.8c-4.8,0-8.7,3.9-8.7,8.7c0,54.3-44.2,98.5-98.5,98.5c-54.3,0-98.5-44.2-98.5-98.5c0-4.8-3.9-8.7-8.7-8.7   s-8.7,3.9-8.7,8.7c0,63.9,52,115.8,115.8,115.8c63.9,0,115.8-52,115.8-115.8C540.3,492.7,536.4,488.8,531.6,488.8z"></path><path d="M325.7,394.5c0-9.5-7.8-17.3-17.3-17.3s-17.3,7.8-17.3,17.3c0,9.5,7.8,17.3,17.3,17.3S325.7,404.1,325.7,394.5z"></path><path d="M531.6,377.2c-9.5,0-17.3,7.8-17.3,17.3c0,9.5,7.8,17.3,17.3,17.3c9.5,0,17.3-7.8,17.3-17.3   C548.9,385,541.2,377.2,531.6,377.2z"></path><path d="M694,333.2C654.4,217.9,546.9,141,424.5,141c-122.4,0-229.9,76.9-269.5,192.2c-34,0.9-61.4,28.8-61.4,63   c0,29,20,54.1,47.6,61c7.4,68.3,39.3,131.5,90.1,178.4c52.7,48.7,121.3,75.5,193.2,75.5c71.8,0,140.3-26.8,193.1-75.4   c50.7-46.8,82.6-109.7,90.1-177.9c28.8-6.1,49.6-31.4,49.6-61.6C757.3,361.3,728.7,333.2,694,333.2z M698.9,441.5   c-4.2,0.4-7.4,3.7-7.8,7.9c-11.9,137-129,244.2-266.6,244.2c-137.7,0-254.8-107.4-266.6-244.5c-0.3-4-3.5-7.3-7.5-7.9   c-22.5-3.1-39.4-22.5-39.4-45.2c0-25.2,20.5-45.6,45.6-45.6c1.3,0,2.6,0.1,3.9,0.2c4.1,0.3,7.8-2.2,9-6   c35.5-111.5,138-186.3,255-186.3c2.8,0,5.6,0.1,8.4,0.2c43.6,4.6,77.3,41.8,76.8,86.5c-0.5,36.6-30.4,66.1-66.9,66.1   c-0.3,0-0.6,0-0.9,0c-13.8-0.2-26.8-5.7-36.4-15.7c-9.7-9.9-14.9-23-14.7-36.8c0.3-21.7,18-39.2,39.7-39.2c0.2,0,0.4,0,0.5,0   c8,0.1,15.5,3.3,21.1,9.1c5.6,5.7,8.6,13.3,8.5,21.4c-0.1,4.8,3.8,8.7,8.6,8.8c4.7-0.1,8.7-3.8,8.8-8.6c0.3-26.1-20.6-47.7-46.8-48   c-31.6-0.5-57.4,24.9-57.8,56.3c-0.2,18.5,6.7,35.9,19.6,49.2c12.9,13.2,30.2,20.7,48.6,20.9c0.4,0,0.8,0,1.1,0   c46,0,83.7-37.1,84.3-83.2c0.4-31-13-59-34.4-78.2c87.4,22.7,158.7,88.5,187.1,177.8c1.3,4,5.1,6.5,9.3,6c1.8-0.2,3.6-0.4,5.4-0.4   c25.2,0,45.6,20.5,45.6,45.6C740,419.7,722.3,439.2,698.9,441.5z"></path></g></svg>