<svg width="479" height="921" viewBox="0 0 479 921" fill="none" xmlns="http://www.w3.org/2000/svg">
<path d="M64.5267 298.834C65.4867 308.784 70.4764 318.415 67.9564 328.345C65.9464 336.255 59.4265 342.675 52.2465 346.975C45.0665 351.285 37.0865 353.915 29.4965 357.375C23.3765 360.165 16.5764 364.894 16.6664 371.354C16.7464 377.524 23.0965 381.295 25.3265 386.915C25.8265 388.185 26.1165 389.594 25.8265 390.984C25.0965 394.414 21.1364 396.424 17.6264 396.794C14.1164 397.164 10.5871 396.464 7.09705 397.154C3.60705 397.844 -0.0631015 400.695 0.186898 404.125C0.296898 405.645 1.16686 406.964 2.14686 408.084C6.57686 413.154 14.0172 415.444 20.9672 413.864C33.7672 410.964 41.1563 397.554 51.0463 388.634C51.5663 388.164 52.1563 387.675 52.8363 387.595C54.2863 387.415 55.147 389.044 55.267 390.464C55.667 395.154 52.5163 399.555 50.5863 404.015C50.3363 404.595 50.097 405.245 50.267 405.825C50.587 406.965 52.1271 407.124 53.3471 407.004C67.6971 405.544 78.5169 392.054 84.2269 378.714C89.9369 365.374 92.7271 350.795 101.097 338.745C109.217 327.055 121.797 318.985 134.697 312.915C137.527 311.585 141.217 310.434 143.287 312.504C145.497 314.704 143.957 318.604 142.067 321.334C135.447 330.914 125.607 338.114 119.067 347.734C116.727 351.174 114.897 355.944 117.437 358.904C119.147 360.904 122.187 361.195 124.927 361.095C141.547 360.525 158.127 350.155 166.177 335.305C174.927 319.145 173.547 301.345 172.827 283.935H66.1869C64.6769 288.815 64.0467 293.894 64.5267 298.834Z" fill="url(#paint0_linear)"/>
<path d="M64.5267 298.834C65.4867 308.784 70.4764 318.415 67.9564 328.345C65.9464 336.255 59.4265 342.675 52.2465 346.975C45.0665 351.285 37.0865 353.915 29.4965 357.375C23.3765 360.165 16.5764 364.894 16.6664 371.354C16.7464 377.524 23.0965 381.295 25.3265 386.915C25.8265 388.185 26.1165 389.594 25.8265 390.984C25.0965 394.414 21.1364 396.424 17.6264 396.794C14.1164 397.164 10.5871 396.464 7.09705 397.154C3.60705 397.844 -0.0631015 400.695 0.186898 404.125C0.296898 405.645 1.16686 406.964 2.14686 408.084C6.57686 413.154 14.0172 415.444 20.9672 413.864C33.7672 410.964 41.1563 397.554 51.0463 388.634C51.5663 388.164 52.1563 387.675 52.8363 387.595C54.2863 387.415 55.147 389.044 55.267 390.464C55.667 395.154 52.5163 399.555 50.5863 404.015C50.3363 404.595 50.097 405.245 50.267 405.825C50.587 406.965 52.1271 407.124 53.3471 407.004C67.6971 405.544 87.4564 393.614 93.1664 380.274C98.8764 366.934 92.7263 350.795 101.086 338.745C109.206 327.055 121.787 318.985 134.687 312.915C137.517 311.585 141.207 310.434 143.277 312.504C145.487 314.704 143.947 318.604 142.057 321.334C135.437 330.914 125.597 338.114 119.057 347.734C116.717 351.174 114.887 355.944 117.427 358.904C119.137 360.904 122.176 361.195 124.916 361.095C141.536 360.525 158.116 350.155 166.166 335.305C174.916 319.145 173.537 301.345 172.817 283.935H66.1771C64.6771 288.815 64.0467 293.894 64.5267 298.834Z" fill="url(#paint1_linear)"/>
<path d="M333.326 809.455L321.887 840.055L331.536 866.515L349.586 825.274L333.326 809.455Z" fill="url(#paint2_linear)"/>
<path d="M325.426 849.575C324.836 847.005 324.856 844.395 325.756 842.265C326.296 840.985 327.136 839.905 327.766 838.685C328.396 837.465 328.836 836.015 328.496 834.475C328.376 833.925 328.146 833.355 327.756 832.895C327.056 832.085 325.956 831.795 325.066 831.935C324.176 832.075 323.456 832.575 322.766 833.085C321.196 834.245 319.676 835.495 318.596 837.145C317.516 838.795 316.926 840.914 317.326 843.154C317.716 845.324 318.986 847.414 320.166 849.444C321.576 851.884 322.906 854.374 324.556 856.694C325.686 858.284 326.976 859.795 328.466 861.045C328.976 861.475 331.286 863.515 331.866 862.845C332.616 861.975 328.716 857.105 328.146 856.125C326.926 854.025 325.946 851.815 325.426 849.575Z" fill="#0A0652"/>
<path d="M304.357 827.854C302.847 827.934 301.077 828.404 301.067 829.974C301.067 830.714 301.487 831.484 301.887 832.204C308.107 843.694 308.616 856.324 308.416 868.124C308.216 879.924 307.566 892.034 311.916 904.044C313.426 908.204 315.497 912.244 317.647 916.224C318.217 917.284 319.027 918.514 320.107 918.624C320.477 918.664 320.816 918.554 321.126 918.404C320.266 919.064 319.287 919.595 318.317 920.095C317.917 920.305 317.496 920.514 317.006 920.454C315.936 920.334 315.117 919.084 314.537 918.004C312.367 913.944 310.277 909.825 308.747 905.575C304.347 893.325 301.327 881.194 301.477 869.154C301.527 864.664 301.137 860.064 299.907 855.444C298.347 849.554 295.187 843.724 293.407 837.814C292.747 835.634 291.317 831.795 292.227 829.845C293.327 827.465 298.397 827.985 300.857 827.845C302.107 827.775 303.377 827.784 304.647 827.834C304.567 827.844 304.457 827.844 304.357 827.854Z" fill="#0A0652"/>
<path d="M327.876 832.684C325.616 834.594 323.346 836.644 322.316 839.574C321.106 843.034 321.796 847.344 323.406 851.294C324.756 854.614 326.707 857.734 328.727 860.804C329.587 859.954 330.506 859.174 331.486 858.484C333.066 857.364 335.006 856.464 337.076 856.644C338.646 855.994 340.396 855.754 342.196 856.474C342.906 856.754 343.696 857.354 343.756 858.084C343.776 858.394 343.656 858.654 343.536 858.904C342.636 860.834 341.886 862.984 340.736 864.734C339.936 865.944 338.866 866.934 338.036 868.124C335.516 871.724 333.456 875.744 330.866 879.274C329.226 882.064 327.636 884.934 326.756 888.194C325.176 894.014 325.906 900.694 326.616 907.194C326.896 909.734 327.156 912.424 326.106 914.454C325.146 916.314 323.236 917.324 321.396 918.264C321.306 918.314 321.206 918.364 321.106 918.404C320.796 918.554 320.456 918.664 320.086 918.624C319.006 918.504 318.196 917.274 317.626 916.224C315.476 912.244 313.396 908.204 311.896 904.044C307.546 892.034 308.196 879.924 308.396 868.124C308.596 856.324 308.086 843.694 301.866 832.204C301.476 831.484 301.046 830.714 301.046 829.974C301.046 828.404 302.826 827.934 304.336 827.854C304.436 827.844 304.546 827.855 304.646 827.845C312.206 827.505 320.266 829.174 327.876 832.684Z" fill="url(#paint3_linear)"/>
<path d="M327.166 887.714C326.966 887.714 326.766 887.675 326.576 887.595C325.746 887.235 325.136 886.585 324.686 886.105C323.686 885.035 322.656 883.934 321.776 882.694C320.716 881.204 320.046 879.745 319.776 878.355C319.616 877.555 320.136 876.785 320.936 876.625C321.736 876.445 322.516 876.995 322.666 877.785C322.856 878.765 323.366 879.834 324.176 880.984C324.946 882.064 325.866 883.035 326.836 884.085C327.126 884.385 327.485 884.764 327.755 884.884C328.505 885.214 328.846 886.075 328.516 886.825C328.276 887.385 327.736 887.714 327.166 887.714Z" fill="#ECF2FE"/>
<path d="M330.347 881.734C329.947 881.734 329.536 881.565 329.246 881.245C327.016 878.745 324.247 875.644 323.017 872.044C322.747 871.274 323.166 870.434 323.936 870.174C324.696 869.904 325.547 870.325 325.807 871.095C326.847 874.125 329.286 876.864 331.446 879.274C331.986 879.884 331.936 880.814 331.326 881.354C331.046 881.614 330.697 881.734 330.347 881.734Z" fill="#ECF2FE"/>
<path d="M334.446 873.424C334.116 873.424 333.786 873.314 333.506 873.084C331.536 871.444 330.127 870.064 328.967 868.614C327.457 866.724 326.407 864.704 325.927 862.784C325.727 861.994 326.216 861.194 327.006 860.994C327.796 860.794 328.596 861.285 328.796 862.075C329.166 863.585 330.026 865.204 331.276 866.764C332.306 868.054 333.577 869.305 335.387 870.805C336.017 871.325 336.096 872.254 335.586 872.884C335.296 873.244 334.866 873.424 334.446 873.424Z" fill="#ECF2FE"/>
<path d="M317.967 875.084C316.787 873.604 314.316 871.295 312.706 872.535C312.216 872.915 312.066 873.624 312.046 874.314C311.996 876.154 312.106 877.934 310.286 878.564C310.056 878.644 309.746 878.674 309.546 878.444C309.416 878.294 309.397 878.084 309.387 877.904C309.257 874.304 308.987 870.674 308.977 867.104C308.967 863.124 309.107 859.174 308.817 855.134C308.527 851.054 307.647 846.834 306.717 842.714C305.887 839.074 305.266 835.364 303.576 831.814C303.336 831.304 303.066 830.764 303.116 830.274C303.216 829.354 304.307 829.065 305.097 828.995C308.017 828.735 311.326 829.435 314.366 830.265C315.176 830.485 316.047 830.694 316.387 831.634C316.677 832.434 316.517 833.314 316.277 833.984C315.447 836.334 314.216 838.445 313.446 840.845C312.476 843.815 312.077 847.164 313.527 850.614C314.777 853.584 317.157 855.615 319.677 857.535C321.667 859.045 323.806 860.305 326.006 861.245C326.296 861.365 326.597 861.495 326.817 861.725C327.207 862.135 327.247 862.784 326.967 863.144C326.697 863.514 326.187 863.625 325.687 863.575C325.187 863.525 324.677 863.314 324.177 863.114C322.737 862.534 321.287 861.954 319.847 861.374C319.417 861.204 318.916 861.025 318.576 861.225C317.136 862.065 319.516 865.464 320.336 866.434C321.246 867.504 322.287 868.455 323.227 869.495C323.457 869.745 323.686 870.015 323.826 870.325C323.966 870.635 323.996 870.994 323.826 871.204C323.646 871.434 323.297 871.454 322.977 871.424C321.757 871.294 320.526 870.534 319.496 869.614C318.356 868.584 317.357 866.804 315.977 866.234C313.907 865.384 315.547 869.794 315.967 870.424C317.037 872.054 318.557 873.355 319.647 874.975C319.897 875.355 320.137 875.754 320.237 876.174C320.287 876.364 320.297 876.554 320.237 876.714C320.157 876.924 319.936 877.034 319.696 877.004C319.056 876.884 318.377 875.604 317.967 875.084Z" fill="#FFB900"/>
<path d="M232.496 432.194C298.656 448.454 365.626 466.075 429.076 491.055C441.436 495.925 454.996 499.864 465.606 508.134C495.036 531.074 468.066 571.724 458.086 597.404C441.276 640.664 423.876 683.154 403.816 725.064C386.136 761.994 367.636 798.644 347.736 834.444L325.526 812.645C325.526 812.645 405.196 582.204 398.256 561.154C391.316 540.104 191.727 470.915 191.727 470.915L232.496 432.194Z" fill="url(#paint4_linear)"/>
<path d="M306.427 687.595L294.986 718.194L304.626 744.654L322.677 703.424L306.427 687.595Z" fill="url(#paint5_linear)"/>
<path d="M298.526 727.714C297.926 725.144 297.956 722.534 298.856 720.404C299.396 719.124 300.236 718.045 300.866 716.825C301.496 715.605 301.936 714.154 301.596 712.614C301.476 712.064 301.246 711.495 300.856 711.035C300.156 710.225 299.056 709.935 298.166 710.075C297.276 710.215 296.556 710.715 295.866 711.225C294.296 712.385 292.776 713.635 291.696 715.285C290.616 716.945 290.027 719.055 290.427 721.295C290.817 723.475 292.086 725.555 293.266 727.585C294.676 730.025 296.006 732.515 297.656 734.835C298.786 736.425 300.076 737.935 301.566 739.185C302.076 739.615 304.387 741.654 304.967 740.984C305.717 740.114 301.816 735.245 301.246 734.265C300.026 732.175 299.046 729.964 298.526 727.714Z" fill="#0A0652"/>
<path d="M277.447 705.995C275.937 706.075 274.166 706.544 274.166 708.114C274.166 708.854 274.587 709.625 274.987 710.345C281.207 721.835 281.717 734.465 281.517 746.265C281.317 758.065 280.667 770.175 285.017 782.185C286.527 786.345 288.597 790.384 290.747 794.364C291.317 795.424 292.127 796.655 293.207 796.765C293.577 796.805 293.917 796.695 294.227 796.545C293.367 797.205 292.386 797.734 291.416 798.234C291.016 798.444 290.597 798.655 290.117 798.595C289.037 798.475 288.227 797.225 287.647 796.145C285.477 792.085 283.387 787.964 281.857 783.714C277.457 771.464 274.436 759.335 274.586 747.295C274.636 742.805 274.247 738.205 273.027 733.585C271.467 727.695 268.307 721.865 266.527 715.955C265.867 713.775 264.437 709.934 265.347 707.984C266.447 705.604 271.517 706.124 273.977 705.984C275.227 705.914 276.497 705.925 277.767 705.975C277.657 705.995 277.557 705.985 277.447 705.995Z" fill="#0A0652"/>
<path d="M300.977 710.834C298.717 712.744 296.446 714.795 295.416 717.725C294.206 721.185 294.906 725.494 296.506 729.444C297.856 732.764 299.806 735.885 301.826 738.955C302.686 738.105 303.606 737.324 304.586 736.634C306.166 735.514 308.107 734.614 310.177 734.794C311.747 734.144 313.496 733.904 315.296 734.624C316.006 734.904 316.796 735.504 316.856 736.234C316.876 736.544 316.756 736.805 316.646 737.055C315.746 738.985 314.997 741.134 313.847 742.884C313.047 744.094 311.976 745.084 311.146 746.274C308.626 749.874 306.567 753.894 303.977 757.424C302.327 760.214 300.746 763.085 299.866 766.345C298.286 772.165 299.007 778.845 299.727 785.345C300.007 787.885 300.267 790.574 299.217 792.604C298.257 794.464 296.346 795.475 294.506 796.415C294.416 796.465 294.317 796.505 294.227 796.555C293.917 796.705 293.576 796.814 293.206 796.774C292.136 796.654 291.316 795.424 290.746 794.374C288.596 790.394 286.517 786.354 285.017 782.194C280.667 770.184 281.317 758.074 281.517 746.274C281.717 734.474 281.206 721.844 274.986 710.354C274.596 709.634 274.166 708.864 274.166 708.124C274.166 706.554 275.946 706.084 277.446 706.004C277.546 705.994 277.656 706.005 277.756 705.995C285.306 705.645 293.357 707.324 300.977 710.834Z" fill="url(#paint6_linear)"/>
<path d="M300.256 765.864C300.056 765.864 299.856 765.825 299.666 765.745C298.836 765.385 298.257 764.755 297.777 764.255C296.827 763.245 295.757 762.105 294.857 760.855C293.797 759.365 293.127 757.905 292.857 756.515C292.707 755.715 293.227 754.945 294.027 754.785C294.847 754.625 295.596 755.155 295.756 755.955C295.946 756.935 296.457 758.005 297.267 759.145C298.047 760.235 299.007 761.255 299.937 762.235C300.237 762.555 300.587 762.925 300.847 763.045C301.597 763.375 301.937 764.235 301.607 764.985C301.367 765.535 300.826 765.864 300.256 765.864Z" fill="#ECF2FE"/>
<path d="M303.446 759.884C303.046 759.884 302.637 759.714 302.347 759.394C300.117 756.894 297.346 753.794 296.116 750.194C295.856 749.424 296.266 748.585 297.036 748.325C297.796 748.055 298.646 748.475 298.906 749.245C299.946 752.275 302.386 755.014 304.546 757.424C305.096 758.034 305.037 758.964 304.427 759.504C304.147 759.754 303.796 759.884 303.446 759.884Z" fill="#ECF2FE"/>
<path d="M307.546 751.575C307.216 751.575 306.887 751.465 306.607 751.235C304.637 749.595 303.227 748.215 302.067 746.765C300.527 744.835 299.507 742.875 299.037 740.935C298.847 740.145 299.327 739.345 300.117 739.145C300.917 738.965 301.707 739.435 301.907 740.225C302.277 741.725 303.126 743.345 304.376 744.915C305.406 746.205 306.677 747.445 308.487 748.955C309.117 749.475 309.197 750.405 308.687 751.035C308.387 751.395 307.966 751.575 307.546 751.575Z" fill="#ECF2FE"/>
<path d="M291.067 753.234C289.887 751.754 287.407 749.444 285.807 750.684C285.317 751.064 285.167 751.774 285.147 752.464C285.097 754.304 285.207 756.084 283.387 756.714C283.157 756.794 282.847 756.825 282.647 756.595C282.517 756.445 282.497 756.235 282.487 756.055C282.357 752.455 282.086 748.824 282.076 745.254C282.066 741.274 282.206 737.325 281.916 733.285C281.626 729.205 280.747 724.984 279.817 720.864C278.987 717.224 278.367 713.514 276.677 709.964C276.437 709.454 276.167 708.914 276.217 708.424C276.317 707.504 277.406 707.214 278.196 707.144C281.116 706.884 284.427 707.584 287.467 708.414C288.277 708.634 289.147 708.845 289.487 709.785C289.777 710.585 289.616 711.464 289.376 712.134C288.546 714.484 287.316 716.595 286.546 718.995C285.576 721.965 285.176 725.315 286.626 728.765C287.876 731.735 290.257 733.764 292.777 735.684C294.767 737.194 296.907 738.454 299.107 739.394C299.397 739.514 299.696 739.644 299.916 739.874C300.306 740.284 300.347 740.934 300.067 741.294C299.797 741.664 299.286 741.775 298.786 741.725C298.286 741.675 297.777 741.465 297.277 741.265C295.837 740.685 294.386 740.104 292.946 739.524C292.516 739.354 292.027 739.174 291.677 739.374C290.237 740.214 292.617 743.614 293.437 744.584C294.347 745.654 295.386 746.604 296.326 747.644C296.556 747.894 296.787 748.165 296.927 748.475C297.067 748.785 297.097 749.144 296.927 749.354C296.747 749.584 296.396 749.605 296.076 749.575C294.856 749.445 293.627 748.685 292.597 747.765C291.457 746.735 290.466 744.954 289.076 744.384C287.016 743.534 288.647 747.945 289.067 748.575C290.137 750.205 291.656 751.504 292.746 753.124C292.996 753.504 293.236 753.905 293.336 754.325C293.386 754.515 293.406 754.704 293.336 754.864C293.256 755.074 293.036 755.184 292.796 755.154C292.146 755.034 291.477 753.754 291.067 753.234Z" fill="#FFB900"/>
<path d="M129.756 490.845C129.756 490.845 311.636 429.194 374.116 406.634C436.596 384.074 512.266 422.804 448.396 525.054C384.526 627.314 321.356 723.924 321.356 723.924L299.146 689.334C299.146 689.334 403.276 477.304 385.226 481.814C367.176 486.324 306.086 553.994 228.336 579.554C150.586 605.114 125.596 588.574 107.546 558.504C89.4956 528.434 99.2165 495.345 99.2165 495.345L129.756 490.845Z" fill="url(#paint7_linear)"/>
<path d="M370.137 388.545C376.007 390.595 381.557 393.165 386.677 396.205C390.297 398.355 393.787 400.765 398.097 401.915C401.467 402.805 405.216 402.885 408.336 404.205C410.676 405.195 412.506 406.815 414.826 407.835C415.456 408.105 416.316 408.314 416.876 407.884C417.546 407.374 417.137 406.505 416.637 405.935C414.047 402.945 410.446 400.564 406.296 399.114C406.856 398.484 408.006 398.615 408.866 398.845C412.926 399.935 416.757 401.504 420.217 403.484C425.517 406.514 430.047 410.564 436.187 412.404C436.807 411.964 436.426 411.185 436.006 410.665C430.586 404.025 423.806 398.245 417.066 392.495C414.716 390.485 412.317 388.454 409.307 387.114C404.697 385.074 399.116 384.875 393.876 384.075C392.016 383.795 390.136 383.415 388.616 382.535C387.116 381.675 386.077 380.385 384.717 379.375C382.387 377.655 379.086 376.735 377.506 374.505C377.246 374.125 377.006 373.704 376.546 373.484C375.556 373.024 374.296 373.785 373.486 374.535C369.086 378.585 366.796 384.084 367.366 389.234" fill="url(#paint8_linear)"/>
<path d="M347.456 384.145C318.096 376.845 290.566 363.984 270.366 345.384C248.776 325.514 224.576 300.285 215.286 273.095C207.826 255.905 203.446 193.525 221.626 183.665C231.416 199.335 245.966 213.125 254.876 229.825C265.596 249.625 274.427 265.714 286.277 285.424C299.047 306.774 318.636 329.774 337.416 346.504C349.316 357.274 362.876 366.645 378.256 374.035C385.326 377.365 377.117 383.824 369.527 386.584C360.627 389.804 353.986 385.795 347.456 384.145Z" fill="url(#paint9_linear)"/>
<path d="M211.136 183.714C211.136 183.714 173.776 176.284 159.366 189.904C144.956 203.524 103.006 305.614 97.1062 347.694C91.2062 389.774 104.316 494.964 104.316 494.964C104.316 494.964 167.236 485.064 187.546 470.834C207.866 456.604 218.346 448.555 229.486 447.325C240.626 446.085 228.216 380.104 230.636 368.484C248.826 280.994 235.386 274.144 238.006 252.484C240.626 230.824 243.906 217.754 240.626 209.714C237.356 201.664 211.136 183.714 211.136 183.714Z" fill="url(#paint10_linear)"/>
<path d="M272.416 85.6846C272.416 85.6846 280.527 77.7347 280.527 94.0947C280.527 110.455 266.616 121.694 267.166 116.814C268.486 105.344 272.416 85.6846 272.416 85.6846Z" fill="url(#paint11_linear)"/>
<path d="M193.446 138.444L188.206 183.665C188.206 183.665 206.556 175.144 214.416 179.734C222.276 184.324 224.246 186.285 224.246 186.285L234.076 200.705L250.456 152.864L193.446 138.444Z" fill="url(#paint12_linear)"/>
<path d="M174.887 102.325C174.887 102.325 189.596 135.825 199.666 146.305C209.116 156.125 228.257 169.265 237.317 170.745C237.917 170.845 238.477 170.894 238.987 170.884C246.027 170.764 253.277 161.634 258.947 151.234C264.717 140.664 268.357 112.555 268.967 107.475C270.177 97.4046 273.607 104.344 270.387 79.3545C267.167 54.3645 235.737 20.5244 227.267 20.5244C218.807 20.5244 177.707 42.6844 174.477 64.0444C171.267 85.4044 174.887 102.325 174.887 102.325Z" fill="#FFCFCB"/>
<path d="M219.986 49.5242C219.986 49.5242 225.257 9.42431 243.387 16.4143C254.947 20.8743 254.126 32.234 261.496 40.384C269.736 49.504 278.137 51.3244 274.967 65.5544C272.957 74.5944 268.516 89.9842 279.696 95.3142C277.006 94.0342 273.577 94.3442 271.177 96.0842C267.947 98.4242 265.716 83.5345 265.526 81.5745C264.646 72.7945 253.186 63.7242 243.406 67.0042C218.836 75.2642 239.726 49.1342 219.986 49.5242Z" fill="url(#paint13_linear)"/>
<path d="M235.277 29.5043C235.277 29.5043 233.667 3.06427 208.687 0.734272C183.707 -1.59573 148.246 5.40457 143.406 37.2846C138.566 69.1646 129.767 60.9246 105.527 87.0546C82.0265 112.385 112.776 146.934 107.946 157.044C103.116 167.154 82.0161 170.554 76.1261 203.454C70.2461 236.354 92.5067 248.354 57.9767 271.364C33.5167 287.654 98.4064 333.095 98.4064 333.095C98.4064 333.095 137.726 202.014 170.666 188.884C190.666 180.914 184.917 185.005 194.097 176.265C216.887 154.555 177.256 114.275 191.756 100.285C206.266 86.2846 204.637 86.0643 207.857 71.2943C211.077 56.5243 217.546 49.7442 228.826 46.6342C240.116 43.5042 235.277 29.5043 235.277 29.5043Z" fill="url(#paint14_linear)"/>
<g opacity="0.31">
<g opacity="0.31">
<path opacity="0.31" d="M115.316 173.384C113.086 174.524 110.646 175.114 108.306 175.024C107.816 175.004 107.436 174.594 107.456 174.104C107.476 173.614 107.896 173.234 108.376 173.254C111.596 173.374 115.076 172.004 117.666 169.604C119.906 167.524 121.246 164.894 121.336 162.374C121.386 161.024 121.156 159.664 120.916 158.214C120.476 155.604 120.036 152.915 121.336 150.305C122.666 147.655 125.337 146.075 127.927 144.535C129.447 143.635 131.016 142.715 132.246 141.595C135.846 138.335 136.606 133.694 137.416 128.794C138.206 123.984 139.026 119.015 142.696 115.305C145.686 112.275 149.877 110.834 153.927 109.434C154.917 109.094 155.896 108.754 156.856 108.404C159.656 107.344 166.266 104.354 166.846 99.3343C167.206 96.2043 165.086 93.6241 162.836 90.8841C161.646 89.4241 160.406 87.9245 159.516 86.2845C158.286 84.0145 157.756 80.7946 159.956 78.5946C160.916 77.6346 162.226 77.0944 163.486 76.6244C167.536 75.1144 172.886 74.9545 178.066 74.7845C183.876 74.6045 189.886 74.4145 191.016 71.9745C191.216 71.5345 191.746 71.3443 192.196 71.5443C192.636 71.7543 192.836 72.2745 192.626 72.7245C191.016 76.1645 185.046 76.3443 178.126 76.5643C173.096 76.7143 167.896 76.8745 164.116 78.2845C162.996 78.7045 161.937 79.1343 161.217 79.8543C159.707 81.3743 160.156 83.7444 161.086 85.4544C161.896 86.9444 163.077 88.3843 164.217 89.7743C166.597 92.6743 169.056 95.6745 168.606 99.5545C167.926 105.535 160.596 108.905 157.476 110.075C156.496 110.445 155.506 110.784 154.506 111.124C150.646 112.454 146.656 113.834 143.956 116.564C140.676 119.874 139.936 124.355 139.156 129.095C138.336 134.085 137.487 139.234 133.427 142.914C132.057 144.154 130.406 145.124 128.816 146.064C126.346 147.524 124.006 148.915 122.906 151.095C121.856 153.185 122.246 155.484 122.646 157.924C122.896 159.394 123.146 160.904 123.086 162.444C122.976 165.474 121.476 168.474 118.856 170.904C117.786 171.904 116.586 172.734 115.316 173.384Z" fill="#6229CE"/>
</g>
<g opacity="0.31">
<path opacity="0.31" d="M133.097 115.674C132.727 115.864 132.336 116.024 131.916 116.154C131.446 116.304 130.957 116.045 130.807 115.575C130.657 115.105 130.917 114.595 131.387 114.465C135.017 113.325 136.307 109.005 136.777 106.535L136.987 105.345C137.537 102.205 138.177 98.6347 140.887 96.1847C142.727 94.5147 145.127 93.7248 147.447 92.9748C148.047 92.7848 148.637 92.5847 149.217 92.3747C150.767 91.8147 154.417 90.2446 154.907 87.5646C155.227 85.8546 154.157 84.2844 153.027 82.6344C152.577 81.9744 152.127 81.3144 151.747 80.6344C148.637 75.0044 151.117 66.8546 157.397 62.0846C162.717 58.0546 170.276 56.2545 178.166 57.1545C185.306 57.9545 189.476 59.6547 195.506 62.3547C195.946 62.5547 196.147 63.0746 195.947 63.5246C195.747 63.9746 195.227 64.1745 194.777 63.9645C188.917 61.3345 184.857 59.6845 177.967 58.9045C170.517 58.0645 163.417 59.7345 158.467 63.4845C152.877 67.7345 150.606 74.8946 153.296 79.7746C153.636 80.4046 154.067 81.0147 154.487 81.6247C155.717 83.4147 157.097 85.4547 156.647 87.8747C155.997 91.3347 152.087 93.2148 149.807 94.0348C149.207 94.2448 148.597 94.4447 147.987 94.6447C145.747 95.3747 143.637 96.0545 142.057 97.4845C139.797 99.5345 139.237 102.645 138.717 105.645L138.497 106.855C138.027 109.465 136.687 113.834 133.097 115.674Z" fill="#6229CE"/>
</g>
<g opacity="0.31">
<path opacity="0.31" d="M209.977 58.5845C209.597 58.7745 209.127 58.6747 208.857 58.3247C206.637 55.3347 204.347 52.2543 203.017 48.6343C201.487 44.5143 201.597 40.3846 203.307 36.9946C204.167 35.2946 205.417 33.7947 206.617 32.3447C207.787 30.9347 208.896 29.6145 209.666 28.1245C210.546 26.4245 210.617 24.2044 209.827 22.7344C209.327 21.7944 208.536 21.2545 207.506 21.1445C207.016 21.0945 206.667 20.6545 206.727 20.1645C206.787 19.6745 207.226 19.3343 207.706 19.3843C209.306 19.5643 210.617 20.4543 211.397 21.9043C212.457 23.8843 212.396 26.7146 211.246 28.9346C210.386 30.6046 209.167 32.0644 207.987 33.4844C206.797 34.9144 205.667 36.2744 204.897 37.7944C203.407 40.7444 203.327 44.3744 204.687 48.0244C205.937 51.4044 208.146 54.3844 210.296 57.2744C210.586 57.6644 210.507 58.2146 210.117 58.5146C210.057 58.5346 210.017 58.5645 209.977 58.5845Z" fill="#6229CE"/>
</g>
<g opacity="0.31">
<path opacity="0.31" d="M209.977 58.5847C209.667 58.7447 209.276 58.7148 208.996 58.4748C207.896 57.5348 206.737 57.4547 205.277 57.3547C201.707 57.1047 197.267 56.7847 190.807 45.1247C189.877 43.4447 189.307 41.6149 188.767 39.8449C188.057 37.5549 187.386 35.3849 185.996 33.5949C183.626 30.5349 178.626 28.6046 175.076 30.8146C175.056 30.8246 175.047 30.8347 175.027 30.8347C174.617 31.0447 174.107 30.9046 173.857 30.5046C173.607 30.0846 173.746 29.5446 174.166 29.2946C178.756 26.6246 184.557 28.8748 187.387 32.5148C188.967 34.5548 189.717 36.9749 190.437 39.3249C190.987 41.0949 191.496 42.7546 192.336 44.2746C198.336 55.0946 202.247 55.3749 205.387 55.5949C206.967 55.7049 208.587 55.8245 210.137 57.1345C210.507 57.4545 210.557 58.0045 210.237 58.3845C210.167 58.4645 210.077 58.5347 209.977 58.5847Z" fill="#6229CE"/>
</g>
<g opacity="0.31">
<path opacity="0.31" d="M72.3565 335.055C71.9365 335.275 71.4967 335.475 71.0567 335.645C70.6067 335.825 70.0863 335.595 69.9063 335.145C69.7363 334.695 69.9163 334.185 70.4063 333.995C76.6563 331.595 80.4562 324.264 78.3262 318.734C78.1462 318.274 78.376 317.735 78.836 317.585C79.296 317.415 79.8066 317.635 79.9766 318.095C82.2866 324.085 78.6865 331.815 72.3565 335.055Z" fill="#6229CE"/>
</g>
</g>
<path d="M231.446 127.895C231.356 127.895 231.266 127.885 231.176 127.855C229.856 127.485 228.556 126.994 227.326 126.404C226.336 125.924 225.226 125.295 224.466 124.285C222.936 122.255 223.386 119.655 223.936 117.375L225.776 109.685C226.306 107.445 226.676 105.605 226.066 103.945C225.876 103.435 226.136 102.865 226.646 102.685C227.156 102.495 227.726 102.755 227.906 103.265C228.766 105.615 228.166 108.124 227.686 110.134L225.846 117.825C225.386 119.755 225.016 121.755 226.026 123.095C226.536 123.775 227.406 124.245 228.176 124.625C229.306 125.165 230.486 125.615 231.706 125.955C232.226 126.105 232.536 126.645 232.386 127.165C232.266 127.605 231.876 127.895 231.446 127.895Z" fill="#D77E8E"/>
<path d="M238.366 153.075C235.326 153.075 231.786 151.945 226.786 149.495C226.296 149.255 226.096 148.664 226.336 148.174C226.586 147.694 227.166 147.495 227.656 147.725C234.326 150.995 238.086 151.765 241.556 150.555C244.746 149.445 246.056 143.285 245.226 139.855C245.096 139.325 245.426 138.795 245.956 138.665C246.486 138.535 247.016 138.865 247.146 139.395C248.146 143.545 246.686 150.855 242.206 152.415C240.966 152.855 239.716 153.075 238.366 153.075Z" fill="#D77E8E"/>
<path opacity="0.31" d="M248.286 110.515C244.996 112.235 242.566 115.645 242.286 119.345C242.006 123.045 243.996 126.905 247.316 128.575C249.256 129.555 251.486 129.784 253.656 129.664C255.766 129.554 257.886 129.104 259.756 128.114C263.186 126.274 265.486 122.494 265.536 118.604C265.676 109.124 255.536 106.715 248.286 110.515Z" fill="#D77E8E"/>
<path opacity="0.31" d="M201.126 119.654C197.876 121.824 195.366 125.895 194.906 130.205C194.446 134.515 196.166 138.884 199.276 140.654C201.086 141.694 203.226 141.844 205.316 141.604C207.356 141.364 209.416 140.745 211.266 139.495C214.656 137.185 217.066 132.684 217.316 128.174C217.926 117.154 208.286 114.874 201.126 119.654Z" fill="#D77E8E"/>
<path d="M248.527 93.7744C249.197 92.9344 250.637 92.8245 251.447 93.5445C252.257 94.2745 252.277 95.6743 251.487 96.4043C251.127 96.7343 250.657 96.9245 250.187 97.1045C249.317 97.4445 248.337 97.7746 247.477 97.3946C246.207 96.8246 246.146 94.9046 247.116 93.9346C248.086 92.9746 249.626 92.8044 251.006 93.0044" fill="#000614"/>
<path d="M250.026 86.2645C251.756 86.2045 253.446 86.3443 255.116 87.5843C255.416 87.8043 256.346 88.8743 256.746 88.8543C257.146 88.8243 257.266 87.9241 257.026 87.8841C257.436 87.9441 255.646 83.9045 251.946 83.5145C249.726 82.6145 246.106 83.1145 244.856 85.3245C244.756 85.4945 244.676 85.6941 244.726 85.8841C244.806 86.1441 245.106 86.2445 245.376 86.2845C246.976 86.5145 248.526 86.3145 250.026 86.2645Z" fill="#750114"/>
<path d="M209.706 99.0044C210.716 98.7744 211.776 98.5445 212.766 98.7945C213.766 99.0445 214.666 99.9346 214.556 100.935C214.506 101.365 214.276 101.774 213.996 102.114C212.966 103.344 210.896 103.775 209.706 102.725C208.516 101.665 209.146 99.2345 210.756 99.1245" fill="#000614"/>
<path d="M206.496 92.3546C207.796 91.2146 209.196 90.2544 211.276 90.1544C211.656 90.1344 213.046 90.3746 213.336 90.1046C213.626 89.8346 213.147 89.0544 212.937 89.1744C213.297 88.9644 209.356 86.9645 206.236 89.0045C203.946 89.7045 201.467 92.3846 201.887 94.8946C201.917 95.0846 201.976 95.2944 202.146 95.4044C202.366 95.5544 202.676 95.4448 202.906 95.3048C204.296 94.4748 205.366 93.3446 206.496 92.3546Z" fill="#750114"/>
<path d="M217.616 532.864C217.616 532.864 221.686 547.684 221.026 557.894C221.016 558.064 221.006 558.244 220.986 558.414C220.986 558.414 221.546 568.634 221.546 571.354C221.546 574.074 225.616 583.614 226.736 583.444C227.856 583.274 231.367 583.274 231.227 581.234C231.087 579.194 230.946 574.934 230.946 574.934C230.946 574.934 232.486 582.424 233.616 582.424C234.736 582.424 238.946 582.934 238.946 581.064C238.946 579.194 237.967 571.864 237.967 571.864C237.967 571.864 240.776 580.894 241.336 580.894C241.896 580.894 245.267 581.574 247.097 579.704C248.927 577.834 247.097 568.634 247.097 568.634C247.097 568.634 248.776 577.834 249.626 577.834C250.466 577.834 254.956 577.154 254.816 572.554C254.676 567.954 250.047 556.545 248.217 551.095C246.387 545.645 239.936 537.644 239.086 532.194C238.246 526.744 217.187 532.704 217.187 532.704" fill="url(#paint15_linear)"/>
<path d="M182.956 184.924C182.956 184.924 140.786 223.425 144.946 308.625C149.106 393.835 211.796 536.895 211.796 536.895C211.796 536.895 243.256 543.275 248.496 533.065C253.736 522.865 190.826 420.844 207.866 336.674C224.906 252.504 255.046 145.384 182.956 184.924Z" fill="url(#paint16_linear)"/>
<path d="M180.986 458.435C180.386 458.435 179.816 458.064 179.596 457.464C179.386 456.874 157.836 397.924 149.066 357.984C140.266 317.914 146.036 260.764 146.086 260.194C146.166 259.384 146.816 258.814 147.706 258.884C148.516 258.964 149.106 259.694 149.016 260.504C148.956 261.064 143.246 317.754 151.936 357.364C160.656 397.114 182.136 455.874 182.356 456.464C182.636 457.224 182.236 458.074 181.476 458.354C181.326 458.404 181.156 458.435 180.986 458.435Z" fill="#FFCA74"/>
<defs>
<linearGradient id="paint0_linear" x1="344.703" y1="-91.6824" x2="309.435" y2="-29.9585" gradientUnits="userSpaceOnUse">
<stop stop-color="#934DE6"/>
<stop offset="1" stop-color="#6229CE"/>
</linearGradient>
<linearGradient id="paint1_linear" x1="40.686" y1="349.915" x2="69.965" y2="312.8" gradientUnits="userSpaceOnUse">
<stop stop-color="#934DE6"/>
<stop offset="1" stop-color="#6229CE"/>
</linearGradient>
<linearGradient id="paint2_linear" x1="337.365" y1="836.18" x2="316.058" y2="842.765" gradientUnits="userSpaceOnUse">
<stop stop-color="#FFCFCB"/>
<stop offset="1" stop-color="#D77E8E"/>
</linearGradient>
<linearGradient id="paint3_linear" x1="320.452" y1="825.845" x2="330.415" y2="917.297" gradientUnits="userSpaceOnUse">
<stop stop-color="#FF7A46"/>
<stop offset="1" stop-color="#FF5946"/>
</linearGradient>
<linearGradient id="paint4_linear" x1="346.503" y1="633.825" x2="765.29" y2="893.354" gradientUnits="userSpaceOnUse">
<stop stop-color="#0A0652"/>
<stop offset="0.9851" stop-color="#310477"/>
</linearGradient>
<linearGradient id="paint5_linear" x1="310.467" y1="714.324" x2="289.159" y2="720.911" gradientUnits="userSpaceOnUse">
<stop stop-color="#FFCFCB"/>
<stop offset="1" stop-color="#D77E8E"/>
</linearGradient>
<linearGradient id="paint6_linear" x1="293.552" y1="703.992" x2="303.515" y2="795.444" gradientUnits="userSpaceOnUse">
<stop stop-color="#FF7A46"/>
<stop offset="1" stop-color="#FF5946"/>
</linearGradient>
<linearGradient id="paint7_linear" x1="200.83" y1="576.504" x2="445.614" y2="554.877" gradientUnits="userSpaceOnUse">
<stop stop-color="#0A0652"/>
<stop offset="0.9851" stop-color="#310477"/>
</linearGradient>
<linearGradient id="paint8_linear" x1="400.333" y1="393.575" x2="399.645" y2="359.67" gradientUnits="userSpaceOnUse">
<stop stop-color="#FFCFCB"/>
<stop offset="1" stop-color="#D77E8E"/>
</linearGradient>
<linearGradient id="paint9_linear" x1="284.979" y1="274.461" x2="303.986" y2="310.24" gradientUnits="userSpaceOnUse">
<stop stop-color="#FF7A46"/>
<stop offset="1" stop-color="#FF5946"/>
</linearGradient>
<linearGradient id="paint10_linear" x1="238.465" y1="267.321" x2="105.691" y2="423.526" gradientUnits="userSpaceOnUse">
<stop stop-color="#FF7A46"/>
<stop offset="1" stop-color="#FF5946"/>
</linearGradient>
<linearGradient id="paint11_linear" x1="260.382" y1="101.745" x2="344.434" y2="95.4011" gradientUnits="userSpaceOnUse">
<stop stop-color="#FFCFCB"/>
<stop offset="1" stop-color="#D77E8E"/>
</linearGradient>
<linearGradient id="paint12_linear" x1="209.97" y1="176.571" x2="246.86" y2="108.419" gradientUnits="userSpaceOnUse">
<stop stop-color="#FFCFCB"/>
<stop offset="1" stop-color="#D77E8E"/>
</linearGradient>
<linearGradient id="paint13_linear" x1="266.567" y1="44.3147" x2="246.107" y2="68.3851" gradientUnits="userSpaceOnUse">
<stop stop-color="#934DE6"/>
<stop offset="1" stop-color="#6229CE"/>
</linearGradient>
<linearGradient id="paint14_linear" x1="217.014" y1="67.5097" x2="74.1893" y2="235.538" gradientUnits="userSpaceOnUse">
<stop stop-color="#934DE6"/>
<stop offset="1" stop-color="#6229CE"/>
</linearGradient>
<linearGradient id="paint15_linear" x1="234.776" y1="554.004" x2="247.523" y2="620.423" gradientUnits="userSpaceOnUse">
<stop stop-color="#FFCFCB"/>
<stop offset="1" stop-color="#D77E8E"/>
</linearGradient>
<linearGradient id="paint16_linear" x1="223.192" y1="489.694" x2="186.194" y2="256.224" gradientUnits="userSpaceOnUse">
<stop stop-color="#FF7A46"/>
<stop offset="1" stop-color="#FF5946"/>
</linearGradient>
</defs>
</svg>
